<svg width="737" height="275" viewBox="0 0 737 275" fill="none" xmlns="http://www.w3.org/2000/svg">
<path d="M519.103 0H469.813C467.079 0 464.861 2.21417 464.861 4.94165V85.5633C464.861 88.9267 463.072 91.8381 460.085 93.3474C457.076 94.872 453.505 94.5579 450.764 92.5506C436.622 82.1693 418.779 76.6837 399.163 76.6837C372.821 76.6837 350.402 86.023 334.332 103.69C318.217 121.411 309.702 146.158 309.702 175.256C309.702 204.354 318.217 229.384 334.332 247.151C350.386 264.849 372.798 274.204 399.155 274.204C418.541 274.204 436.392 268.657 450.787 258.161C453.528 256.161 457.091 255.87 460.093 257.387C463.079 258.896 464.861 261.808 464.861 265.164C464.861 267.891 467.079 270.105 469.813 270.105H519.103C521.837 270.105 524.056 267.891 524.056 265.164V4.94165C524.056 2.21417 521.837 0 519.103 0ZM416.691 230.756C389.888 230.756 371.876 208.446 371.876 175.241C371.876 142.036 389.888 120.101 416.691 120.101C443.494 120.101 461.874 142.258 461.874 175.241C461.874 208.223 443.716 230.756 416.691 230.756Z" fill="#E3E88E"></path>
<path d="M736.128 263.25C733.027 255.902 731.522 246.839 731.522 235.538V141.379C731.522 121.965 722.908 105.676 706.608 94.2836C690.124 82.7608 666.515 76.6699 638.338 76.6699C584.018 76.6699 550.72 99.1717 546.989 138.406C546.851 139.839 547.327 141.264 548.286 142.321C549.231 143.355 550.52 143.922 551.918 143.922H604.218C606.721 143.922 608.871 142.045 609.117 139.647C611.028 121.244 622.115 111.913 642.062 111.913C668.657 111.913 672.327 129.289 672.327 148.067V150.304C672.327 163.382 652.204 165.834 626.721 168.937C588.379 173.603 540.662 179.41 540.662 222.881C540.662 254.048 566.26 274.19 605.877 274.19C633.846 274.19 655.743 264.047 669.202 244.862L672.695 239.882V247.368C673.31 254.47 677.21 263.732 681.594 268.49C682.531 269.509 683.874 270.091 685.264 270.091H731.576C733.265 270.091 734.762 269.287 735.691 267.893C736.62 266.491 736.781 264.797 736.128 263.234V263.25ZM672.327 195.346C672.327 222.33 655.282 241.177 630.875 241.177C614.115 241.177 602.844 231.73 602.844 217.672C602.844 198.549 623.796 193.707 644.05 189.025C649.693 187.723 655.536 186.375 660.972 184.735C663.674 183.915 666.523 184.413 668.78 186.083C671.029 187.746 672.319 190.313 672.319 193.109V195.339L672.327 195.346Z" fill="#E3E88E"></path>
<path d="M300.804 76.6776C300.804 76.6776 300.758 76.6776 300.735 76.6776C299.046 76.7006 280.78 77.1756 268.734 78.1562C252.588 79.4817 241.893 84.2395 230.584 95.1494C220.288 105.079 212.518 123.719 208.119 149.048L194.514 227.815C193.716 229.723 190.867 229.156 190.867 227.088V141.379C190.859 121.965 182.245 105.676 165.945 94.2836C149.461 82.7608 125.86 76.6699 97.6755 76.6699C43.3482 76.6699 10.0501 99.1717 6.31873 138.406C6.10376 140.689 7.42432 142.949 9.79672 143.715C10.2804 143.869 10.7871 143.922 11.2939 143.922H63.5558C66.0588 143.922 68.2085 142.045 68.4542 139.647C70.366 121.244 81.4525 111.913 101.399 111.913C127.995 111.913 131.665 129.289 131.665 148.067V150.304C131.665 163.382 111.541 165.834 86.0591 168.937C47.7168 173.611 0 179.418 0 222.889C0 254.056 25.5974 274.198 65.2142 274.198C93.184 274.198 115.081 264.054 128.54 244.87L132.033 239.89V247.375C132.647 254.485 136.548 263.748 140.932 268.498C141.868 269.517 143.212 270.099 144.601 270.099L245.317 270.068C246.822 270.068 248.104 268.996 248.373 267.525L267.421 163.551C267.659 162.203 267.951 160.793 268.35 159.123L268.373 159.031C272.274 145.784 281.878 138.904 296.927 138.575C299.337 138.521 301.387 136.529 301.595 134.047L305.84 82.0253C305.956 80.6309 305.487 79.3055 304.535 78.2788C303.576 77.2522 302.217 76.6699 300.796 76.6699L300.804 76.6776ZM131.657 195.346C131.657 222.33 114.612 241.177 90.2051 241.177C73.4447 241.177 62.1739 231.73 62.1739 217.672C62.1739 198.549 83.1263 193.707 103.38 189.025C109.023 187.723 114.866 186.375 120.302 184.735C123.25 183.846 126.375 184.513 128.716 186.566C130.651 188.267 131.657 190.795 131.657 193.369V195.338V195.346Z" fill="#E3E88E"></path>
</svg>