<svg xmlns="http://www.w3.org/2000/svg" width="17.027" height="20.760" viewBox="0 0 17.027 20.760" fill="none">
  <path d="M 14.992 2.041 C 14.358 1.406 13.615 0.902 12.785 0.543 C 11.95 0.182 11.045 0 10.093 0 L 1.032 0 L 1.032 1.55 L 6.899 1.55 C 7.927 1.55 8.881 1.776 9.735 2.221 C 10.589 2.667 11.309 3.283 11.861 4.036 C 11.909 4.111 11.952 4.179 11.988 4.24 C 12.037 4.322 12.092 4.395 12.154 4.462 C 12.312 4.695 12.438 4.928 12.523 5.144 C 12.615 5.407 12.635 5.617 12.579 5.732 L 12.552 5.806 C 12.498 6.027 12.285 6.277 11.934 6.532 C 11.696 6.653 11.428 6.77 11.136 6.881 C 10.826 6.999 10.49 7.124 10.15 7.247 C 9.62 7.401 9.02 7.566 8.366 7.739 C 7.699 7.916 7.042 8.096 6.413 8.275 C 5.756 8.462 5.101 8.686 4.469 8.94 C 3.828 9.198 3.234 9.493 2.707 9.813 C 1.914 10.286 1.261 10.886 0.766 11.596 C 0.258 12.327 0 13.227 0 14.274 C 0 15.425 0.16 16.39 0.476 17.142 C 0.794 17.9 1.224 18.528 1.739 18.995 C 2.103 19.366 2.517 19.662 2.969 19.877 C 3.399 20.081 3.837 20.249 4.27 20.372 C 4.703 20.496 5.13 20.579 5.538 20.621 C 5.94 20.662 6.305 20.682 6.625 20.682 C 7.936 20.682 9.061 20.493 9.97 20.121 C 10.877 19.75 11.655 19.253 12.289 18.638 C 12.58 18.343 12.847 18.007 13.086 17.637 L 13.086 20.76 L 17.027 20.76 L 17.027 7 C 17.027 6.034 16.845 5.115 16.486 4.269 C 16.127 3.427 15.624 2.677 14.99 2.041 L 14.992 2.041 Z M 13.088 7.791 L 13.088 11.823 C 13.088 12.816 12.96 13.858 12.709 14.92 C 12.467 15.94 11.962 16.832 11.211 17.571 C 10.558 18.209 9.871 18.625 9.168 18.807 C 8.461 18.988 7.79 19.008 7.173 18.864 C 6.554 18.719 5.986 18.437 5.486 18.025 C 4.988 17.617 4.61 17.112 4.362 16.523 C 4.112 15.933 4.004 15.281 4.04 14.589 C 4.075 13.903 4.313 13.204 4.745 12.509 C 5.184 11.803 5.886 11.106 6.829 10.438 C 7.782 9.764 9.059 9.176 10.619 8.69 C 11.632 8.393 12.438 8.032 13.014 7.618 C 13.038 7.603 13.06 7.589 13.083 7.573 C 13.087 7.648 13.088 7.721 13.088 7.792 L 13.088 7.791 Z" fill="currentColor" fill-rule="nonzero"></path>
</svg>