<svg xmlns="http://www.w3.org/2000/svg" width="45.553" height="40.617" viewBox="0 0 45.553 40.617" fill="none">
  <path d="M 17.842 29.988 C 20.777 29.988 23.156 32.368 23.156 35.303 C 23.156 38.238 20.777 40.617 17.842 40.617 C 14.907 40.617 12.527 38.238 12.527 35.303 C 12.528 32.368 14.907 29.988 17.842 29.988 Z M 35.684 29.988 C 38.409 29.989 40.618 32.368 40.618 35.303 C 40.618 38.238 38.409 40.617 35.684 40.617 C 32.958 40.617 30.748 38.238 30.748 35.303 C 30.748 32.368 32.958 29.988 35.684 29.988 Z M 17.842 33.025 C 16.584 33.025 15.565 34.045 15.564 35.303 C 15.564 36.561 16.584 37.581 17.842 37.581 C 19.1 37.581 20.119 36.561 20.119 35.303 C 20.119 34.045 19.1 33.025 17.842 33.025 Z M 35.684 33.025 C 34.843 33.025 33.785 33.829 33.785 35.303 C 33.785 36.776 34.843 37.581 35.684 37.581 C 36.524 37.581 37.581 36.776 37.581 35.303 C 37.581 33.829 36.524 33.026 35.684 33.025 Z M 8.492 0 C 9.348 0 10.099 0.572 10.324 1.397 L 11.926 7.256 L 43.655 7.256 C 44.247 7.256 44.805 7.533 45.164 8.003 C 45.523 8.473 45.641 9.085 45.485 9.655 L 41.24 25.175 C 41.015 26 40.265 26.572 39.409 26.572 L 14.724 26.572 C 13.868 26.572 13.118 26 12.893 25.175 L 7.045 3.796 L 1.898 3.796 C 0.85 3.796 0 2.946 0 1.898 C 0 0.85 0.85 0 1.898 0 L 8.492 0 Z M 16.172 22.776 L 37.962 22.776 L 41.168 11.053 L 12.965 11.053 L 16.172 22.776 Z" fill="currentColor" fill-rule="nonzero"></path>
</svg>