<svg xmlns="http://www.w3.org/2000/svg" width="39.858" height="39.858" viewBox="0 0 39.858 39.858" fill="none">
  <path d="M 15.943 0 C 24.749 0 31.887 7.308 31.887 16.323 C 31.887 19.972 30.717 23.34 28.741 26.058 L 39.302 36.618 C 40.043 37.359 40.043 38.562 39.302 39.303 C 38.561 40.044 37.359 40.044 36.618 39.303 L 26.165 28.849 C 23.397 31.219 19.834 32.646 15.943 32.646 C 7.138 32.646 0 25.338 0 16.323 C 0 7.308 7.138 0 15.943 0 Z M 15.943 3.796 C 9.318 3.796 3.796 9.32 3.796 16.323 C 3.796 23.326 9.318 28.85 15.943 28.85 C 22.568 28.85 28.091 23.326 28.091 16.323 C 28.091 9.32 22.568 3.796 15.943 3.796 Z" fill="currentColor" fill-rule="nonzero"></path>
</svg>