<svg width="64" height="27" viewBox="0 0 64 27" fill="none" xmlns="http://www.w3.org/2000/svg">
<path d="M14.992 8.12772C14.3581 7.49261 13.6147 6.9885 12.7849 6.62942C11.9505 6.26917 11.0446 6.08671 10.0926 6.08671H1.0315V7.63648H6.89897C7.92702 7.63648 8.88131 7.86222 9.73532 8.30785C10.5893 8.75348 11.3085 9.36988 11.8606 10.1231C11.909 10.198 11.9516 10.2658 11.9885 10.3266C12.0369 10.4085 12.0922 10.4822 12.1545 10.5489C12.3124 10.7816 12.438 11.0144 12.5233 11.2308C12.6155 11.4939 12.6351 11.7033 12.5786 11.8191L12.5521 11.8928C12.4979 12.1138 12.2847 12.3641 11.9343 12.6191C11.6958 12.7396 11.4284 12.8566 11.1356 12.9677C10.8256 13.0858 10.4902 13.211 10.1502 13.3338C9.62007 13.4882 9.01961 13.6531 8.36613 13.8262C7.69882 14.0028 7.04189 14.1829 6.41261 14.3619C5.75568 14.549 5.10105 14.7724 4.46947 15.0262C3.82751 15.2847 3.23397 15.5795 2.70727 15.9C1.91433 16.3725 1.26085 16.9725 0.766425 17.6825C0.258164 18.4135 0 19.3141 0 20.361C0 21.5119 0.1602 22.4768 0.47599 23.2289C0.794085 23.9868 1.22397 24.6149 1.73915 25.0816C2.10335 25.4524 2.5171 25.7483 2.96889 25.9635C3.39878 26.1682 3.83673 26.3355 4.27008 26.4583C4.70343 26.5822 5.12986 26.6653 5.53785 26.7074C5.94008 26.7483 6.30543 26.7682 6.62467 26.7682C7.93624 26.7682 9.0611 26.5799 9.97044 26.208C10.8775 25.8372 11.6554 25.3401 12.2893 24.7249C12.5797 24.4301 12.8471 24.0933 13.0857 23.7237V26.8466H17.0273V13.087C17.0273 12.1209 16.8452 11.2015 16.4856 10.3559C16.1272 9.51374 15.6235 8.76401 14.9897 8.12772H14.992ZM13.088 13.8777V17.9094C13.088 18.9024 12.9601 19.9446 12.7088 21.0066C12.4668 22.0265 11.962 22.9189 11.2105 23.6582C10.5582 24.2956 9.87132 24.712 9.16828 24.8933C8.46064 25.0746 7.78987 25.0945 7.17327 24.9506C6.55437 24.8056 5.98618 24.5237 5.48599 24.112C4.9881 23.7038 4.61007 23.1985 4.36228 22.6102C4.11218 22.0195 4.00385 21.368 4.03958 20.6756C4.0753 19.9902 4.31272 19.2907 4.74492 18.596C5.18403 17.8895 5.88591 17.1924 6.82867 16.5245C7.7818 15.8508 9.05879 15.2625 10.6193 14.7771C11.6324 14.48 12.438 14.1186 13.0142 13.7046C13.0384 13.6893 13.0603 13.6753 13.0834 13.6601C13.0868 13.735 13.088 13.8075 13.088 13.8788V13.8777Z" fill="#E9E9E1"></path>
<path d="M40.5091 6.15814C40.4861 6.78857 40.3282 7.29619 40.0401 7.66814C39.7277 8.07049 39.3244 8.43659 38.8484 8.75005C38.2767 9.10328 37.6129 9.41089 36.8741 9.66471C36.1042 9.92904 35.294 10.2238 34.4711 10.5373C33.6044 10.8566 32.7527 11.2285 31.9413 11.6402C31.1058 12.0648 30.3474 12.6122 29.6905 13.266C29.0266 13.9257 28.4769 14.7327 28.0585 15.6661C27.6367 16.6042 27.4223 17.7586 27.4223 19.092C27.3946 21.4453 28.0585 23.353 29.4058 24.7706C30.0904 25.4361 30.9479 25.9554 31.954 26.3133C32.9498 26.6677 34.1184 26.8478 35.4288 26.8478C36.9283 26.8478 38.1661 26.5063 39.1077 25.8338C39.6609 25.4384 40.1357 24.9519 40.5276 24.3799L40.5057 26.8478H44.4508V0H40.5091V6.15814ZM40.508 18.1411C40.4826 19.4511 40.3294 20.6593 40.0539 21.733C39.7877 22.7658 39.3013 23.6103 38.6063 24.2454C37.8157 24.9776 37.0205 25.325 36.178 25.2981C35.3251 25.2747 34.531 24.9916 33.8188 24.4583C33.0927 23.9156 32.4888 23.1623 32.0243 22.2161C31.561 21.2733 31.3386 20.2394 31.3639 19.1423C31.3893 17.7609 31.5333 16.617 31.795 15.7421C32.0508 14.8836 32.4139 14.169 32.8714 13.6169C33.329 13.0648 33.8971 12.6169 34.561 12.2847C35.2537 11.9373 36.0593 11.5899 36.9456 11.2542C37.4538 11.0741 37.9563 10.8788 38.4392 10.6741C38.9233 10.4682 39.3739 10.225 39.7658 9.95828C40.0412 9.78986 40.2902 9.61324 40.5057 9.43429C40.5057 9.43429 40.508 9.43312 40.5091 9.43195V18.1411H40.508Z" fill="#E9E9E1"></path>
<path d="M61.4791 8.12772C60.8453 7.49261 60.1019 6.9885 59.2721 6.62942C58.4376 6.26917 57.5318 6.08671 56.5798 6.08671H47.5187V7.63648H53.3862C54.4142 7.63648 55.3685 7.86222 56.2225 8.30785C57.0765 8.75348 57.7957 9.36988 58.3477 10.1231C58.3962 10.198 58.4388 10.2658 58.4757 10.3266C58.5241 10.4085 58.5794 10.4822 58.6416 10.5489C58.7995 10.7816 58.9252 11.0144 59.0104 11.2308C59.1026 11.4939 59.1222 11.7033 59.0658 11.8191L59.0393 11.8928C58.9851 12.1138 58.7719 12.3641 58.4215 12.6191C58.1829 12.7396 57.9156 12.8566 57.6228 12.9677C57.3128 13.0858 56.9774 13.211 56.6374 13.3338C56.1073 13.4882 55.5068 13.6531 54.8533 13.8262C54.186 14.0028 53.5291 14.1829 52.8998 14.3619C52.2429 14.549 51.5882 14.7724 50.9566 15.0262C50.3147 15.2847 49.7211 15.5795 49.1944 15.9C48.4015 16.3725 47.748 16.9725 47.2536 17.6825C46.7453 18.4135 46.4872 19.3141 46.4872 20.361C46.4872 21.5119 46.6474 22.4768 46.9632 23.2289C47.2813 23.9868 47.7112 24.6149 48.2263 25.0816C48.5905 25.4524 49.0043 25.7483 49.4561 25.9635C49.886 26.1682 50.3239 26.3355 50.7573 26.4583C51.1906 26.5822 51.617 26.6653 52.025 26.7074C52.4273 26.7483 52.7926 26.7682 53.1119 26.7682C54.4234 26.7682 55.5483 26.5799 56.4576 26.208C57.3647 25.8372 58.1426 25.3401 58.7765 24.7249C59.0669 24.4301 59.3343 24.0933 59.5729 23.7237V26.8466H63.5145V13.087C63.5145 12.1209 63.3324 11.2015 62.9728 10.3559C62.6144 9.51374 62.1107 8.76401 61.4768 8.12772H61.4791ZM59.5752 13.8777V17.9094C59.5752 18.9024 59.4473 19.9446 59.196 21.0066C58.954 22.0265 58.4492 22.9189 57.6977 23.6582C57.0454 24.2956 56.3585 24.712 55.6555 24.8933C54.9478 25.0746 54.2771 25.0945 53.6605 24.9506C53.0416 24.8056 52.4734 24.5237 51.9732 24.112C51.4753 23.7038 51.0973 23.1985 50.8495 22.6102C50.5994 22.0195 50.491 21.368 50.5268 20.6756C50.5625 19.9902 50.7999 19.2907 51.2321 18.596C51.6712 17.8895 52.3731 17.1924 53.3159 16.5245C54.269 15.8508 55.546 15.2625 57.1065 14.7771C58.1196 14.48 58.9252 14.1186 59.5014 13.7046C59.5256 13.6893 59.5475 13.6753 59.5706 13.6601C59.574 13.735 59.5752 13.8075 59.5752 13.8788V13.8777Z" fill="#E9E9E1"></path>
<path d="M30.6648 9.62171L31.0117 9.61469V5.6122L30.6486 5.62155C29.5468 5.64963 28.5937 5.92917 27.8135 6.452C27.0574 6.95962 26.3866 7.59122 25.8207 8.32926C25.2664 9.0521 24.757 9.85447 24.3075 10.713C23.8822 11.5247 23.45 12.2873 23.0224 12.9809V6.08707H19.0808V26.8469H23.0224V16.5261C23.0224 15.9389 23.2103 15.3693 23.5584 14.9003C24.2648 13.9494 25.6974 11.554 27.7478 10.3551C28.4946 9.91763 29.4616 9.64744 30.6648 9.62288V9.62171Z" fill="#E9E9E1"></path>
</svg>